<?xml version="1.0" encoding="UTF-8" standalone="no"?>
<svg width="439px" height="220px" viewBox="0 0 439 220" version="1.1" xmlns="http://www.w3.org/2000/svg" xmlns:xlink="http://www.w3.org/1999/xlink">
    <!-- Generator: Sketch 3.8.3 (29802) - http://www.bohemiancoding.com/sketch -->
    <title>logo-abay</title>
    <desc>Created with Sketch.</desc>
    <defs>
        <polygon id="path-1" points="0 219.855467 438.636287 219.855467 438.636287 0.00121325674 0 0.00121325674"></polygon>
    </defs>
    <g id="Welcome" stroke="none" stroke-width="1" fill="none" fill-rule="evenodd">
        <g id="Desktop-HD" transform="translate(-781.000000, -184.000000)">
            <g id="Index-Header">
                <g id="Background">
                    <g id="titulo" transform="translate(544.000000, 113.000000)">
                        <g id="logo-abay" transform="translate(237.000000, 71.000000)">
                            <g id="Page-1">
                                <path d="M57.9168414,179.855909 C59.4446617,179.855909 60.535094,179.073358 60.535094,177.766074 L60.535094,177.735743 C60.535094,176.492154 59.5752706,175.733869 57.9320285,175.733869 L54.7883029,175.733869 L54.7883029,179.855909 L57.9168414,179.855909 L57.9168414,179.855909 Z M53.6401596,174.666203 L58.0170761,174.666203 C59.2684916,174.666203 60.2738763,175.051412 60.914771,175.685339 C61.4098699,176.182774 61.6984244,176.892529 61.6984244,177.693279 L61.6984244,177.72361 C61.6984244,179.407004 60.535094,180.395808 58.9374132,180.683957 L62.0629143,184.839361 L60.6505158,184.839361 L57.6981475,180.893243 L57.6708107,180.893243 L54.7883029,180.893243 L54.7883029,184.839361 L53.6401596,184.839361 L53.6401596,174.666203 L53.6401596,174.666203 Z" id="Fill-1" fill="#6FC1D0"></path>
                                <polygon id="Fill-3" fill="#6FC1D0" points="68.5137785 174.666203 75.8764749 174.666203 75.8764749 175.71567 69.6619217 175.71567 69.6619217 179.185584 75.2234305 179.185584 75.2234305 180.235052 69.6619217 180.235052 69.6619217 183.79596 75.9493729 183.79596 75.9493729 184.839361 68.5137785 184.839361"></polygon>
                                <path d="M81.9494845,183.357064 L82.6632773,182.516884 C83.7233355,183.475357 84.7408699,183.954593 86.1532683,183.954593 C87.5201056,183.954593 88.4222181,183.226639 88.4222181,182.225703 L88.4222181,182.195371 C88.4222181,181.249031 87.9149696,180.715198 85.7766288,180.26326 C83.4317436,179.756725 82.3564983,178.99844 82.3564983,177.333245 L82.3564983,177.302913 C82.3564983,175.704448 83.7688968,174.524555 85.7037308,174.524555 C87.1859898,174.524555 88.2490854,174.946162 89.2818069,175.77421 L88.6105379,176.66292 C87.6659015,175.892502 86.7212651,175.56189 85.6733566,175.56189 C84.3520806,175.56189 83.5046416,176.283778 83.5046416,177.196753 L83.5046416,177.227085 C83.5046416,178.185558 84.0301145,178.725457 86.2686901,179.204693 C88.5406773,179.696062 89.5885859,180.52411 89.5885859,182.077079 L89.5885859,182.113476 C89.5885859,183.8545 88.1336636,184.985862 86.1107445,184.985862 C84.4948392,184.985862 83.1705258,184.445962 81.9494845,183.357064" id="Fill-5" fill="#6FC1D0"></path>
                                <mask id="mask-2" fill="white">
                                    <use xlink:href="#path-1"></use>
                                </mask>
                                <g id="Clip-8"></g>
                                <polygon id="Fill-7" fill="#6FC1D0" mask="url(#mask-2)" points="96.3893604 184.840877 97.5375036 184.840877 97.5375036 174.66772 96.3893604 174.66772"></polygon>
                                <path d="M108.413883,183.783524 C110.989612,183.783524 112.632854,182.036434 112.632854,179.785843 L112.632854,179.755512 C112.632854,177.504921 110.989612,175.733566 108.413883,175.733566 L106.026474,175.733566 L106.026474,183.783524 L108.413883,183.783524 Z M104.881368,174.6659 L108.413883,174.6659 C111.615319,174.6659 113.826558,176.864928 113.826558,179.72518 L113.826558,179.755512 C113.826558,182.615765 111.615319,184.839058 108.413883,184.839058 L104.881368,184.839058 L104.881368,174.6659 Z" id="Fill-9" fill="#6FC1D0" mask="url(#mask-2)"></path>
                                <polygon id="Fill-10" fill="#6FC1D0" mask="url(#mask-2)" points="120.611235 174.666203 127.970894 174.666203 127.970894 175.71567 121.762415 175.71567 121.762415 179.185584 127.320887 179.185584 127.320887 180.235052 121.762415 180.235052 121.762415 183.79596 128.046829 183.79596 128.046829 184.839361 120.611235 184.839361"></polygon>
                                <polygon id="Fill-11" fill="#6FC1D0" mask="url(#mask-2)" points="134.715476 174.666203 135.790721 174.666203 142.208781 182.822322 142.208781 174.666203 143.329588 174.666203 143.329588 184.839361 142.412288 184.839361 135.836282 176.501254 135.836282 184.839361 134.715476 184.839361"></polygon>
                                <path d="M150.113353,179.78463 L150.113353,179.754299 C150.113353,176.881913 152.263843,174.494831 155.26481,174.494831 C157.111559,174.494831 158.214141,175.153022 159.234713,176.111495 L158.45106,176.951675 C157.591471,176.13576 156.631648,175.559463 155.246586,175.559463 C152.992823,175.559463 151.307057,177.385415 151.307057,179.723967 L151.307057,179.754299 C151.307057,182.114083 153.00801,183.9552 155.246586,183.9552 C156.646835,183.9552 157.564134,183.415301 158.536107,182.487159 L159.292424,183.227246 C158.232366,184.304011 157.069035,185.0168 155.219249,185.0168 C152.27903,185.0168 150.113353,182.705546 150.113353,179.78463" id="Fill-12" fill="#6FC1D0" mask="url(#mask-2)"></path>
                                <polygon id="Fill-13" fill="#6FC1D0" mask="url(#mask-2)" points="165.757868 184.840877 166.906011 184.840877 166.906011 174.66772 165.757868 174.66772"></polygon>
                                <path d="M180.855344,181.117696 L178.540833,175.934056 L176.214172,181.117696 L180.855344,181.117696 Z M178.018398,174.596441 L179.093643,174.596441 L183.737852,184.839361 L182.501624,184.839361 L181.304882,182.15503 L175.764635,182.15503 L174.555743,184.839361 L173.377226,184.839361 L178.018398,174.596441 Z" id="Fill-14" fill="#6FC1D0" mask="url(#mask-2)"></path>
                                <path d="M202.357516,183.783524 C204.933245,183.783524 206.576487,182.036434 206.576487,179.785843 L206.576487,179.755512 C206.576487,177.504921 204.933245,175.733566 202.357516,175.733566 L199.970107,175.733566 L199.970107,183.783524 L202.357516,183.783524 Z M198.821964,174.6659 L202.357516,174.6659 C205.558952,174.6659 207.770191,176.864928 207.770191,179.72518 L207.770191,179.755512 C207.770191,182.615765 205.558952,184.839058 202.357516,184.839058 L198.821964,184.839058 L198.821964,174.6659 Z" id="Fill-15" fill="#6FC1D0" mask="url(#mask-2)"></path>
                                <polygon id="Fill-16" fill="#6FC1D0" mask="url(#mask-2)" points="214.554564 174.666203 221.914223 174.666203 221.914223 175.71567 215.702707 175.71567 215.702707 179.185584 221.261178 179.185584 221.261178 180.235052 215.702707 180.235052 215.702707 183.79596 221.987121 183.79596 221.987121 184.839361 214.554564 184.839361"></polygon>
                                <polygon id="Fill-17" fill="#6FC1D0" mask="url(#mask-2)" points="237.384086 174.666203 244.743745 174.666203 244.743745 175.71567 238.53223 175.71567 238.53223 179.185584 244.090701 179.185584 244.090701 180.235052 238.53223 180.235052 238.53223 183.79596 244.816643 183.79596 244.816643 184.839361 237.384086 184.839361"></polygon>
                                <path d="M250.816755,183.357064 L251.530548,182.516884 C252.593643,183.475357 253.60814,183.954593 255.020539,183.954593 C256.390413,183.954593 257.292526,183.226639 257.292526,182.225703 L257.292526,182.195371 C257.292526,181.249031 256.78224,180.715198 254.643899,180.26326 C252.302051,179.756725 251.223769,178.99844 251.223769,177.333245 L251.223769,177.302913 C251.223769,175.704448 252.636167,174.524555 254.571001,174.524555 C256.05326,174.524555 257.119393,174.946162 258.152115,175.77421 L257.480846,176.66292 C256.536209,175.892502 255.591573,175.56189 254.543665,175.56189 C253.219351,175.56189 252.374949,176.283778 252.374949,177.196753 L252.374949,177.227085 C252.374949,178.185558 252.897385,178.725457 255.138998,179.204693 C257.407948,179.696062 258.455856,180.52411 258.455856,182.077079 L258.455856,182.113476 C258.455856,183.8545 257.000934,184.985862 254.981052,184.985862 C253.36211,184.985862 252.037796,184.445962 250.816755,183.357064" id="Fill-18" fill="#6FC1D0" mask="url(#mask-2)"></path>
                                <polygon id="Fill-19" fill="#6FC1D0" mask="url(#mask-2)" points="267.630675 175.732656 264.213582 175.732656 264.213582 174.66499 272.214136 174.66499 272.214136 175.732656 268.794006 175.732656 268.794006 184.838148 267.630675 184.838148"></polygon>
                                <path d="M278.562639,180.584469 L278.562639,174.66681 L279.710783,174.66681 L279.710783,180.508641 C279.710783,182.704636 280.874113,183.942157 282.824134,183.942157 C284.701257,183.942157 285.894962,182.804729 285.894962,180.584469 L285.894962,174.66681 L287.043105,174.66681 L287.043105,180.496508 C287.043105,183.456855 285.342152,184.997691 282.796797,184.997691 C280.278779,184.997691 278.562639,183.456855 278.562639,180.584469" id="Fill-20" fill="#6FC1D0" mask="url(#mask-2)"></path>
                                <path d="M297.656444,183.783524 C300.232173,183.783524 301.875415,182.036434 301.875415,179.785843 L301.875415,179.755512 C301.875415,177.504921 300.232173,175.733566 297.656444,175.733566 L295.269035,175.733566 L295.269035,183.783524 L297.656444,183.783524 Z M294.120892,174.6659 L297.656444,174.6659 C300.85788,174.6659 303.069119,176.864928 303.069119,179.72518 L303.069119,179.755512 C303.069119,182.615765 300.85788,184.839058 297.656444,184.839058 L294.120892,184.839058 L294.120892,174.6659 Z" id="Fill-21" fill="#6FC1D0" mask="url(#mask-2)"></path>
                                <polygon id="Fill-22" fill="#6FC1D0" mask="url(#mask-2)" points="309.956156 184.840877 311.1043 184.840877 311.1043 174.66772 309.956156 174.66772"></polygon>
                                <path d="M325.04938,181.117696 L322.737907,175.934056 L320.411246,181.117696 L325.04938,181.117696 Z M322.212434,174.596441 L323.290717,174.596441 L327.931888,184.839361 L326.69566,184.839361 L325.501955,182.15503 L319.958671,182.15503 L318.74978,184.839361 L317.571262,184.839361 L322.212434,174.596441 Z" id="Fill-23" fill="#6FC1D0" mask="url(#mask-2)"></path>
                                <polygon id="Fill-24" fill="#6FC1D0" mask="url(#mask-2)" points="334.292237 174.666203 335.367483 174.666203 341.785543 182.822322 341.785543 174.666203 342.903312 174.666203 342.903312 184.839361 341.98905 184.839361 335.413044 176.501254 335.413044 184.839361 334.292237 184.839361"></polygon>
                                <polygon id="Fill-25" fill="#6FC1D0" mask="url(#mask-2)" points="352.834144 175.732656 349.414013 175.732656 349.414013 174.66499 357.417604 174.66499 357.417604 175.732656 353.997474 175.732656 353.997474 184.838148 352.834144 184.838148"></polygon>
                                <polygon id="Fill-26" fill="#6FC1D0" mask="url(#mask-2)" points="363.926179 174.666203 371.285838 174.666203 371.285838 175.71567 365.074323 175.71567 365.074323 179.185584 370.629757 179.185584 370.629757 180.235052 365.074323 180.235052 365.074323 183.79596 371.358736 183.79596 371.358736 184.839361 363.926179 184.839361"></polygon>
                                <path d="M377.358848,183.357064 L378.072641,182.516884 C379.135736,183.475357 380.153271,183.954593 381.565669,183.954593 C382.932507,183.954593 383.834619,183.226639 383.834619,182.225703 L383.834619,182.195371 C383.834619,181.249031 383.324333,180.715198 381.185992,180.26326 C378.844145,179.756725 377.768899,178.99844 377.768899,177.333245 L377.768899,177.302913 C377.768899,175.704448 379.17826,174.524555 381.116132,174.524555 C382.598391,174.524555 383.661486,174.946162 384.694208,175.77421 L384.022939,176.66292 C383.078303,175.892502 382.130629,175.56189 381.085758,175.56189 C379.758407,175.56189 378.917043,176.283778 378.917043,177.196753 L378.917043,177.227085 C378.917043,178.185558 379.439478,178.725457 381.681091,179.204693 C383.950041,179.696062 384.997949,180.52411 384.997949,182.077079 L384.997949,182.113476 C384.997949,183.8545 383.543027,184.985862 381.520108,184.985862 C379.904203,184.985862 378.582927,184.445962 377.358848,183.357064" id="Fill-27" fill="#6FC1D0" mask="url(#mask-2)"></path>
                                <polygon id="Fill-28" fill="#6FC1D0" mask="url(#mask-2)" points="195.691603 219.855467 242.947721 219.855467 242.947721 216.224796 195.691603 216.224796"></polygon>
                                <polygon id="Fill-29" fill="#6FC1D0" mask="url(#mask-2)" points="14.4899932 122.91322 17.8524127 122.91322 32.3408872 154.891635 28.4803314 154.891635 24.753422 146.501964 16.1180482 127.089857 7.44926282 146.501964 3.67679211 154.891635 -0.00151870802 154.891635"></polygon>
                                <path d="M57.3846861,151.668922 C62.1989905,151.668922 65.1969202,149.542689 65.1969202,145.999979 L65.1969202,145.912018 C65.1969202,142.463336 62.2870756,140.467529 56.7498662,140.467529 L46.7081688,140.467529 L46.7081688,151.668922 L57.3846861,151.668922 Z M56.1150462,137.291829 C60.4251396,137.291829 63.4230692,135.341519 63.4230692,131.622887 L63.4230692,131.531893 C63.4230692,128.398657 60.9263132,126.360386 56.3853763,126.360386 L46.7081688,126.360386 L46.7081688,137.291829 L56.1150462,137.291829 Z M43.1665417,123.139189 L56.7012675,123.139189 C60.3370545,123.139189 63.1983004,124.179557 65.0177126,125.950912 C66.3298763,127.315826 67.0588562,128.99012 67.0588562,131.034458 L67.0588562,131.125452 C67.0588562,135.253558 64.5135016,137.37979 62.0167456,138.468688 C65.7861789,139.606116 68.8327072,141.780879 68.8327072,146.136471 L68.8327072,146.230498 C68.8327072,151.668922 64.2401341,154.890118 57.2905262,154.890118 L43.1665417,154.890118 L43.1665417,123.139189 Z" id="Fill-30" fill="#6FC1D0" mask="url(#mask-2)"></path>
                                <polygon id="Fill-31" fill="#6FC1D0" mask="url(#mask-2)" points="125.896946 142.326541 112.678111 123.138886 117.036803 123.138886 127.758882 139.014351 138.572083 123.138886 142.74853 123.138886 129.529695 142.278011 129.529695 154.892848 125.896946 154.892848"></polygon>
                                <polygon id="Fill-32" fill="#6FC1D0" mask="url(#mask-2)" points="171.201525 123.138583 174.831237 123.138583 186.422016 140.466922 198.003684 123.138583 201.639471 123.138583 201.639471 154.892545 198.046208 154.892545 198.046208 129.168469 186.46454 146.184395 186.282295 146.184395 174.697591 129.216999 174.697591 154.892545 171.201525 154.892545"></polygon>
                                <path d="M242.487553,139.103828 L242.487553,139.015867 C242.487553,131.806089 237.217636,125.906628 229.946062,125.906628 C222.680563,125.906628 217.501769,131.709028 217.501769,138.924873 L217.501769,139.015867 C217.501769,146.231712 222.771685,152.125106 230.040222,152.125106 C237.305721,152.125106 242.487553,146.319673 242.487553,139.103828 M213.774859,139.103828 L213.774859,139.015867 C213.774859,130.259187 220.363014,122.594437 230.040222,122.594437 C239.714392,122.594437 246.211425,130.171225 246.211425,138.924873 C246.256986,138.967337 246.256986,138.967337 246.211425,139.015867 C246.211425,147.769514 239.626307,155.437297 229.946062,155.437297 C220.271892,155.437297 213.774859,147.860509 213.774859,139.103828" id="Fill-33" fill="#6FC1D0" mask="url(#mask-2)"></path>
                                <polygon id="Fill-34" fill="#6FC1D0" mask="url(#mask-2)" points="258.35228 123.138583 261.711663 123.138583 281.746459 148.589676 281.746459 123.138583 285.245562 123.138583 285.245562 154.892545 282.384316 154.892545 261.851384 128.856055 261.851384 154.892545 258.35228 154.892545"></polygon>
                                <path d="M297.381862,139.103828 L297.381862,139.015867 C297.381862,130.034734 304.103663,122.594437 313.464979,122.594437 C319.233032,122.594437 322.686575,124.638775 325.866749,127.629453 L323.412517,130.259187 C320.730479,127.72348 317.732549,125.906628 313.419418,125.906628 C306.37565,125.906628 301.108771,131.621067 301.108771,138.924873 L301.108771,139.015867 C301.108771,146.362137 306.424249,152.125106 313.419418,152.125106 C317.781148,152.125106 320.642394,150.447779 323.685884,147.538996 L326.048994,149.856316 C322.732136,153.214004 319.093311,155.437297 313.325258,155.437297 C304.152262,155.437297 297.381862,148.227519 297.381862,139.103828" id="Fill-35" fill="#6FC1D0" mask="url(#mask-2)"></path>
                                <polygon id="Fill-36" fill="#6FC1D0" mask="url(#mask-2)" points="336.86827 123.138583 340.452421 123.138583 340.452421 151.580354 358.354951 151.580354 358.354951 154.892545 336.86827 154.892545"></polygon>
                                <path d="M395.021119,139.103828 L395.021119,139.015867 C395.021119,131.806089 389.748164,125.906628 382.482665,125.906628 C375.211091,125.906628 370.035334,131.709028 370.035334,138.924873 L370.035334,139.015867 C370.035334,146.231712 375.302214,152.125106 382.57075,152.125106 C389.842324,152.125106 395.021119,146.319673 395.021119,139.103828 M366.308425,139.103828 L366.308425,139.015867 C366.308425,130.259187 372.893543,122.594437 382.57075,122.594437 C392.247958,122.594437 398.744991,130.171225 398.744991,138.924873 C398.790552,138.967337 398.790552,138.967337 398.744991,139.015867 C398.744991,147.769514 392.153798,155.437297 382.482665,155.437297 C372.80242,155.437297 366.308425,147.860509 366.308425,139.103828" id="Fill-37" fill="#6FC1D0" mask="url(#mask-2)"></path>
                                <polygon id="Fill-38" fill="#6FC1D0" mask="url(#mask-2)" points="92.2776103 122.91322 95.6400298 122.91322 110.131542 154.891635 106.267949 154.891635 102.544076 146.501964 93.9087027 127.089857 85.2368799 146.501964 81.4674466 154.891635 77.7891358 154.891635"></polygon>
                                <polygon id="Fill-39" fill="#6FC1D0" mask="url(#mask-2)" points="420.784481 122.91322 424.143864 122.91322 438.635375 154.891635 434.77482 154.891635 431.050948 146.501964 422.415574 127.089857 413.743751 146.501964 409.974318 154.891635 406.296007 154.891635"></polygon>
                                <path d="M242.490286,85.7217449 C248.926571,80.4137467 261.501473,68.3054445 265.851053,51.8536831 C271.105783,50.9043097 275.555597,50.74052 277.982493,50.74052 C273.487117,78.9912032 253.084794,84.6904767 242.490286,85.7217449 M256.641608,54.2407657 C258.385085,53.6371705 260.116412,53.1336689 261.802178,52.7181285 C257.899098,65.4027277 248.88101,75.2058422 242.751504,80.7109946 C246.335655,72.6640693 248.537782,64.8870936 249.382183,57.3982664 C251.632909,56.2032085 254.04158,55.1416088 256.641608,54.2407657 M229.687578,72.3334568 C228.955561,63.5312792 225.951556,56.1000817 221.720436,49.8821409 C225.079818,45.4264555 229.374724,41.3135152 234.635529,37.5645518 C237.369203,35.6142416 240.160588,33.9278148 242.863889,32.4628072 C243.234453,33.4425121 243.592869,34.4373826 243.911797,35.4686508 C245.852706,41.7472544 246.508788,48.3595037 245.931679,55.2659677 C239.55918,59.0088647 233.663555,64.4351555 229.687578,72.3334568 M209.428013,72.3455894 C205.078433,63.7921294 198.465979,58.0867896 191.43436,54.2589646 C191.033421,46.1058793 192.172452,38.5897538 194.836266,31.7166544 C197.976955,33.3393852 201.263439,35.2714966 204.477025,37.5645518 C209.740867,41.3135152 214.035773,45.4264555 217.395155,49.8821409 C213.160997,56.1061479 210.156993,63.5373455 209.428013,72.3455894 M193.858218,80.8110883 C188.111427,75.1239473 179.88003,65.1722089 176.605695,52.3935823 C180.287044,53.32779 184.211385,54.674505 188.038529,56.5823512 C188.816108,66.3369354 191.513333,74.9267931 193.858218,80.8110883 M160.662299,50.2248859 C163.074007,50.2673499 167.453961,50.5100012 172.657054,51.510938 C176.210831,67.7139818 187.376373,79.8465492 193.551439,85.5215576 C183.281936,84.0626163 164.984542,77.5807922 160.662299,50.2248859 M178.261087,25.0771068 C180.666721,25.7625969 185.714906,27.3762284 191.64698,30.14852 C188.691574,37.7010432 187.698339,45.3263618 187.83806,52.4815434 C183.743623,50.6343601 179.615775,49.3604405 175.794705,48.4899288 C174.616188,41.374178 175.047501,33.5001418 178.261087,25.0771068 M218.695169,4.19999152 C222.121375,6.23219655 234.605154,14.4125801 241.481864,29.1870141 C233.997671,33.227159 225.808798,38.9992279 219.557795,46.9308939 C212.914967,38.5078589 204.091273,32.5234701 196.245627,28.4529937 C200.704554,19.0411546 208.179635,10.924467 218.695169,4.19999152 M260.851466,25.0771068 C264.107576,33.654832 264.329308,41.653227 262.807562,48.8448064 C258.655415,49.7638483 254.150927,51.1590936 249.728449,53.264094 C250.029153,46.7125076 249.2455,40.3975063 247.371414,34.3494215 C246.991737,33.120999 246.569536,31.94414 246.123036,30.7945792 C252.629181,27.6128134 258.266625,25.8171935 260.851466,25.0771068 M235.795822,89.4707083 C235.84442,89.4767745 236.530876,89.5253048 237.703319,89.5253048 C245.794995,89.5253048 277.037856,87.0381285 281.87646,49.1936177 L282.119453,47.2797052 L280.190694,47.1553464 C280.026674,47.1432138 274.346706,46.8368665 266.67723,48.0986535 C268.074442,40.2670812 267.518595,31.5528647 263.618552,22.2047215 L263.023219,20.782178 L261.522735,21.1370556 C261.313154,21.1855859 253.901859,23.0145704 244.725825,27.518786 C236.278771,9.36543208 220.238177,0.863535484 219.48186,0.475293327 L218.56456,-0.000909942554 L217.68371,0.538989306 C205.148294,8.33416385 197.484893,17.4821197 193.059378,26.8787931 C184.506014,22.8386482 177.790288,21.1855859 177.589818,21.1370556 L176.089335,20.782178 L175.494001,22.2047215 C171.666857,31.3799756 170.91054,39.9577008 171.979711,47.7195107 C164.313273,46.3849283 158.645454,46.6002814 158.478396,46.6093808 L156.516226,46.7064414 L156.765294,48.6537184 C161.719319,87.3990724 192.79816,89.5313711 199.553373,89.5313711 C200.346139,89.5313711 201.348486,89.5010397 201.387973,89.5010397 C201.387973,89.5010397 193.275035,71.7692924 191.768476,58.6539871 C200.075809,63.7799968 207.353458,72.0089106 209.938299,85.187912 C210.008159,85.6459164 210.074983,86.1008877 210.156993,86.5679915 L213.738106,85.9340649 C213.735069,85.9279986 213.735069,85.915866 213.732031,85.9067666 L213.786705,85.9007003 C213.732031,85.5670547 213.653059,85.2728399 213.595348,84.9573932 C211.681776,72.9734498 213.671283,62.2755585 219.557795,52.985045 C225.562767,62.4636133 227.527975,73.3950565 225.416971,85.6671484 C225.410896,85.6974798 225.401784,85.7278112 225.395709,85.7642089 L225.401784,85.7642089 C225.389634,85.8218386 225.386597,85.8825015 225.374447,85.9340649 L228.958598,86.5679915 C228.97986,86.4375664 228.995047,86.3071413 229.019346,86.1767162 C230.993667,74.6629098 236.494427,65.8334338 245.397094,59.7914153 C244.075818,68.0961577 241.020177,77.1197547 237.426914,86.0826888 C237.402615,86.0826888 235.795822,89.4707083 235.795822,89.4707083" id="Fill-40" fill="#6FC1D0" mask="url(#mask-2)"></path>
                            </g>
                        </g>
                    </g>
                </g>
            </g>
        </g>
    </g>
</svg>